<svg xmlns="http://www.w3.org/2000/svg" viewBox="0 0 512 512" width="512" height="512">
  <path d="M 480.9 322.3 L 485.7 316.7 L 489.8 311.4 L 493.4 306.4 L 496.3 301.6 L 498.6 297.0 L 500.4 292.8 L 501.5 288.8 L 502.2 285.1 L 502.3 281.7 L 502.0 278.5 L 501.2 275.6 L 500.0 273.0 L 498.5 270.6 L 496.6 268.4 L 494.4 266.4 L 492.0 264.7 L 489.3 263.1 L 486.5 261.7 L 483.4 260.4 L 480.2 259.2 L 476.9 258.2 L 473.5 257.3 L 470.0 256.5 L 466.4 255.8 L 462.8 255.1 L 459.1 254.5 L 455.4 253.9 L 451.7 253.4 L 448.1 252.9 L 444.4 252.4 L 440.7 251.9 L 437.1 251.4 L 433.5 250.9 L 429.9 250.4 L 426.3 249.9 L 422.8 249.4 L 419.3 248.8 L 415.9 248.2 L 412.5 247.6 L 409.2 246.9 L 405.9 246.2 L 402.7 245.5 L 399.5 244.6 L 396.3 243.8 L 393.2 242.8 L 390.1 241.8 L 387.1 240.8 L 384.1 239.7 L 381.1 238.5 L 378.2 237.2 L 375.3 235.9 L 372.5 234.5 L 369.6 233.1 L 366.8 231.5 L 364.1 229.9 L 361.3 228.2 L 358.6 226.4 L 355.8 224.6 L 353.1 222.6 L 350.4 220.6 L 347.8 218.5 L 345.1 216.3 L 342.4 214.1 L 339.7 211.7 L 337.0 209.3 L 334.4 206.7 L 331.7 204.1 L 329.0 201.4 L 326.3 198.6 L 323.5 195.8 L 320.8 192.8 L 318.0 189.8 L 315.2 186.6 L 312.4 183.4 L 309.5 180.1 L 306.6 176.8 L 303.7 173.3 L 300.7 169.8 L 297.7 166.2 L 294.6 162.5 L 291.5 158.7 L 288.4 154.9 L 285.1 151.0 L 281.9 147.1 L 278.5 143.1 L 275.1 139.0 L 271.7 134.9 L 268.1 130.8 L 264.5 126.7 L 260.8 122.5 L 257.1 118.3 L 253.3 114.1 L 249.4 109.9 L 245.4 105.8 L 241.3 101.6 L 237.2 97.5 L 233.0 93.5 L 228.7 89.5 L 224.4 85.6 L 220.0 81.8 L 215.5 78.1 L 210.9 74.5 L 206.3 71.1 L 201.6 67.8 L 196.9 64.7 L 192.1 61.8 L 187.3 59.1 L 182.4 56.7 L 177.5 54.4 L 172.6 52.5 L 167.7 50.8 L 162.8 49.4 L 157.9 48.3 L 153.0 47.6 L 148.2 47.1 L 143.4 47.1 L 138.6 47.3 L 133.9 48.0 L 129.3 49.0 L 124.8 50.4 L 120.3 52.2 L 116.0 54.3 L 111.8 56.9 L 107.7 59.8 L 103.8 63.1 L 100.0 66.8 L 96.3 70.8 L 92.8 75.2 L 89.5 79.9 L 86.4 85.0 L 83.4 90.3 L 80.7 96.0 L 78.1 101.9 L 75.7 108.0 L 73.5 114.4 L 71.5 121.0 L 69.6 127.9 L 68.0 134.8 L 66.5 142.0 L 65.2 149.2 L 64.1 156.6 L 63.2 164.0 L 62.4 171.6 L 61.8 179.2 L 61.4 186.8 L 61.1 194.4 L 61.0 202.0 L 60.9 209.7 L 61.1 217.2 L 61.3 224.8 L 61.7 232.3 L 62.2 239.7 L 62.8 247.1 L 63.5 254.3 L 64.3 261.5 L 65.2 268.6 L 66.1 275.5 L 67.2 282.4 L 68.3 289.1 L 69.5 295.7 L 70.8 302.2 L 72.1 308.5 L 73.5 314.7 L 74.9 320.8 L 76.4 326.8 L 78.0 332.6 L 79.6 338.3 L 81.2 343.8 L 82.9 349.2 L 84.6 354.5 L 86.4 359.6 L 88.3 364.6 L 90.1 369.5 L 92.0 374.2 L 94.0 378.8 L 96.0 383.3 L 98.0 387.6 L 100.1 391.8 L 102.3 395.9 L 104.5 399.8 L 106.8 403.7 L 109.1 407.4 L 111.5 411.0 L 113.9 414.4 L 116.4 417.7 L 119.0 420.9 L 121.7 424.0 L 124.4 427.0 L 127.3 429.8 L 130.2 432.5 L 133.2 435.1 L 136.4 437.5 L 139.7 439.8 L 143.0 442.0 L 146.6 444.0 L 150.2 445.9 L 154.1 447.7 L 158.0 449.3 L 162.2 450.7 L 166.5 452.0 L 171.0 453.2 L 175.8 454.1 L 180.7 454.9 L 185.9 455.5 L 191.3 455.9 L 196.9 456.1 L 202.8 456.0 L 208.9 455.8 L 215.4 455.3 L 222.1 454.6 L 229.1 453.6 L 236.4 452.4 L 243.9 450.9 L 251.8 449.2 L 260.0 447.1 L 268.5 444.8 L 277.2 442.2 L 286.2 439.2 L 295.5 436.0 L 305.0 432.4 L 314.8 428.6 L 324.7 424.4 L 334.8 419.9 L 345.0 415.2 L 355.2 410.2 L 365.5 404.9 L 375.8 399.4 L 386.0 393.7 L 396.0 387.8 L 405.9 381.7 L 415.5 375.6 L 424.8 369.3 L 433.8 363.0 L 442.3 356.7 L 450.4 350.4 L 458.0 344.1 L 465.0 338.0 L 471.5 331.9 L 477.3 326.1 Z" fill="#3F51B5"/>
  <path d="M 204.8 162.7 L 203.8 168.9 L 202.8 175.3 L 201.8 181.8 L 200.8 188.3 L 199.8 194.9 L 198.8 201.6 L 197.7 208.4 L 196.7 215.3 L 195.6 222.3 L 194.5 229.4 L 193.4 236.6 L 192.3 243.9 L 191.1 251.3 L 190.0 258.8 L 188.8 266.4 L 187.7 274.1 L 186.5 281.9 L 185.3 289.8 L 184.0 297.9 L 182.8 306.0 L 181.5 314.3 L 180.2 322.7 L 178.9 331.2 L 177.6 339.9 L 176.3 348.7 L 174.9 357.6" fill="none" stroke="#FFFFFF" stroke-opacity="0.75" stroke-width="7.2" stroke-linecap="round"/>
  <path d="M 174.5 360.6 L 181.4 354.9 L 188.5 349.3 L 195.8 343.7 L 203.1 338.1 L 210.6 332.7 L 218.2 327.3 L 225.8 322.1 L 233.5 316.9 L 241.3 311.9 L 249.1 307.0 L 256.9 302.3 L 264.8 297.8 L 272.6 293.4 L 280.4 289.2 L 288.1 285.1 L 295.8 281.3 L 303.4 277.7 L 310.9 274.2 L 318.3 271.0 L 325.6 268.0 L 332.7 265.2 L 339.8 262.7 L 346.6 260.3 L 353.3 258.2 L 359.8 256.3 L 366.2 254.6" fill="none" stroke="#FFFFFF" stroke-opacity="0.75" stroke-width="7.2" stroke-linecap="round"/>
  <path d="M 368.2 254.1 L 360.1 252.4 L 352.2 250.6 L 344.6 248.7 L 337.2 246.6 L 330.1 244.4 L 323.2 242.1 L 316.5 239.6 L 310.0 237.0 L 303.6 234.3 L 297.3 231.4 L 291.2 228.4 L 285.2 225.3 L 279.3 222.0 L 273.5 218.6 L 267.7 215.0 L 262.0 211.3 L 256.4 207.4 L 250.8 203.4 L 245.3 199.2 L 239.7 194.8 L 234.2 190.2 L 228.7 185.5 L 223.2 180.6 L 217.7 175.5 L 212.2 170.1 L 206.6 164.6" fill="none" stroke="#FFFFFF" stroke-opacity="0.75" stroke-width="7.2" stroke-linecap="round"/>
  <path d="M 216.9 180.3 L 219.2 179.0 L 221.1 177.4 L 222.7 175.5 L 223.7 173.3 L 224.3 170.9 L 224.4 168.3 L 224.1 165.6 L 223.2 162.8 L 221.9 159.9 L 220.2 157.0 L 218.1 154.2 L 215.7 151.6 L 213.0 149.1 L 210.0 146.9 L 206.9 145.1 L 203.8 143.7 L 200.6 142.8 L 197.6 142.4 L 194.7 142.6 L 192.0 143.3 L 189.7 144.7 L 187.7 146.5 L 186.1 148.9 L 185.1 151.6 L 184.5 154.7 L 184.4 158.0 L 184.9 161.4 L 185.8 164.7 L 187.2 168.0 L 189.1 171.1 L 191.4 173.8 L 194.0 176.2 L 196.8 178.3 L 199.8 179.8 L 203.0 181.0 L 206.2 181.6 L 209.3 181.8 L 212.4 181.6 L 215.2 180.9 Z" fill="#FFFFFF" fill-opacity="0.95"/>
  <path d="M 185.2 374.4 L 187.6 371.2 L 189.7 367.7 L 191.4 364.0 L 192.6 360.3 L 193.4 356.7 L 193.7 353.2 L 193.4 349.9 L 192.7 346.8 L 191.6 344.2 L 189.9 341.9 L 188.0 340.1 L 185.7 338.8 L 183.1 338.0 L 180.3 337.8 L 177.5 338.1 L 174.5 339.0 L 171.6 340.4 L 168.8 342.3 L 166.2 344.6 L 163.8 347.4 L 161.6 350.5 L 159.8 353.9 L 158.4 357.5 L 157.4 361.2 L 156.7 364.9 L 156.5 368.5 L 156.8 371.9 L 157.4 375.0 L 158.5 377.8 L 159.9 380.2 L 161.8 382.1 L 163.9 383.4 L 166.3 384.1 L 169.0 384.3 L 171.8 383.8 L 174.8 382.8 L 177.8 381.2 L 180.7 379.0 L 183.5 376.4 Z" fill="#FFFFFF" fill-opacity="0.95"/>
  <path d="M 389.5 259.5 L 390.9 258.5 L 391.8 257.4 L 392.0 256.3 L 391.5 255.2 L 390.5 254.1 L 388.9 253.1 L 386.9 252.1 L 384.5 251.1 L 381.7 250.1 L 378.7 249.2 L 375.5 248.4 L 372.3 247.7 L 368.9 247.1 L 365.6 246.7 L 362.4 246.4 L 359.3 246.2 L 356.4 246.3 L 353.7 246.6 L 351.4 247.2 L 349.4 247.9 L 347.8 248.9 L 346.7 250.0 L 346.1 251.4 L 346.0 252.8 L 346.4 254.3 L 347.4 255.8 L 349.0 257.3 L 351.1 258.7 L 353.7 260.0 L 356.7 261.1 L 360.1 261.9 L 363.8 262.5 L 367.7 262.9 L 371.7 263.0 L 375.6 262.8 L 379.3 262.4 L 382.7 261.8 L 385.7 261.0 L 388.1 260.2 Z" fill="#FFFFFF" fill-opacity="0.95"/>
</svg>
